#N canvas 810 273 759 478 10;
#X obj 98 49 - 36;
#X obj 94 93 % 4;
#X obj 194 173 nbx 5 14 -1e+37 1e+37 0 0 empty empty empty 0 -8 0 10
-262144 -1 -1 1 256;
#X obj 73 148 nbx 5 14 -1e+37 1e+37 0 0 empty empty empty 0 -8 0 10
-262144 -1 -1 3 256;
#X obj 194 119 div 4;
#X obj 61 240 == 0;
#X obj 91 240 == 1;
#X obj 121 240 == 2;
#X obj 151 240 == 3;
#X obj 194 259 == 3;
#X obj 194 289 == 2;
#X obj 99 -42 inlet notein;
#X obj 80 425 outlet noteout;
#X obj 98 -10 unpack f f;
#X obj 24 121 print;
#X obj 176 69 nbx 5 14 -1e+37 1e+37 0 0 empty empty empty 0 -8 0 10
-262144 -1 -1 0 256;
#X obj 61 366 pad;
#X obj 194 319 == 1;
#X obj 195 349 == 0;
#X obj 238 47 s message;
#X obj 61 276 pad;
#X obj 61 306 pad;
#X obj 61 336 pad;
#X obj 91 276 pad;
#X obj 91 306 pad;
#X obj 91 336 pad;
#X obj 91 366 pad;
#X obj 121 276 pad;
#X obj 121 306 pad;
#X obj 121 336 pad;
#X obj 121 366 pad;
#X obj 151 276 pad;
#X obj 151 306 pad;
#X obj 151 336 pad;
#X obj 151 366 pad;
#X obj 214 19 f;
#X obj 143 22 t f b;
#X text 217 -4 need to force ordering here;
#X connect 0 0 1 0;
#X connect 0 0 4 0;
#X connect 1 0 3 0;
#X connect 1 0 14 0;
#X connect 2 0 9 0;
#X connect 2 0 10 0;
#X connect 2 0 17 0;
#X connect 2 0 18 0;
#X connect 3 0 5 0;
#X connect 3 0 6 0;
#X connect 3 0 7 0;
#X connect 3 0 8 0;
#X connect 4 0 2 0;
#X connect 5 0 16 0;
#X connect 5 0 20 0;
#X connect 5 0 21 0;
#X connect 5 0 22 0;
#X connect 6 0 23 0;
#X connect 6 0 24 0;
#X connect 6 0 25 0;
#X connect 6 0 26 0;
#X connect 7 0 27 0;
#X connect 7 0 28 0;
#X connect 7 0 29 0;
#X connect 7 0 30 0;
#X connect 8 0 31 0;
#X connect 8 0 32 0;
#X connect 8 0 33 0;
#X connect 8 0 34 0;
#X connect 9 0 20 1;
#X connect 9 0 23 1;
#X connect 9 0 27 1;
#X connect 9 0 31 1;
#X connect 10 0 21 1;
#X connect 10 0 24 1;
#X connect 10 0 28 1;
#X connect 10 0 32 1;
#X connect 11 0 13 0;
#X connect 13 0 0 0;
#X connect 13 1 35 1;
#X connect 15 0 0 1;
#X connect 17 0 22 1;
#X connect 17 0 25 1;
#X connect 17 0 29 1;
#X connect 17 0 33 1;
#X connect 18 0 16 1;
#X connect 18 0 26 1;
#X connect 18 0 30 1;
#X connect 18 0 34 1;
#X connect 35 0 19 0;
#X connect 36 1 35 0;
