#N canvas 38 275 759 478 10;
#X obj 71 -40 notein;
#X obj 162 -12 t b b;
#X obj 163 -40 bng 15 250 50 0 empty empty empty 17 7 0 10 -262144
-1 -1;
#X obj 73 174 mpd32;
#X msg 159 133 \$1 127;
#X msg 213 133 \$1 0;
#X obj 166 94 f;
#X obj 204 94 f;
#X obj 214 41 nbx 5 14 -1e+37 1e+37 0 0 empty empty empty 0 -8 0 10
-262144 -1 -1 0 256;
#X obj 165 16 del 250;
#X connect 0 0 3 0;
#X connect 1 0 9 0;
#X connect 1 1 6 0;
#X connect 2 0 1 0;
#X connect 4 0 3 0;
#X connect 5 0 3 0;
#X connect 6 0 4 0;
#X connect 7 0 5 0;
#X connect 8 0 7 1;
#X connect 8 0 6 1;
#X connect 9 0 7 0;
